<svg id="SvgjsSvg1012" width="288" height="288" xmlns="http://www.w3.org/2000/svg" version="1.1" xmlns:xlink="http://www.w3.org/1999/xlink" xmlns:svgjs="http://svgjs.com/svgjs"><defs id="SvgjsDefs1013"></defs><g id="SvgjsG1014"><svg xmlns="http://www.w3.org/2000/svg" viewBox="0 0 100 100" width="288" height="288"><path d="M69 15H31c-1.1 0-2 .9-2 2v66c0 1.8 2.1 2.7 3.4 1.4L50 66.8l17.6 17.6c1 1 3.4.7 3.4-1.4V17c0-1.1-.9-2-2-2zm-2 63.2L51.4 62.6c-.8-.8-2-.8-2.8 0L33 78.2V19h34v59.2z" fill="#ffffff" class="color000 svgShape"></path><path fill="#0000ff" d="M664-930V754h-1784V-930H664m8-8h-1800V762H672V-938z" class="color00F svgShape"></path></svg></g></svg>